# xmcd CD database file
# Copyright (C) 1995-1998 Ti Kan
#
# Track frame offsets:
#	150
#	21850
#	47625
#	72850
#	95000
#	146075
#
# Disc length: 2109 seconds
#
# Revision: 1
# Processed by: cddbd v1.4PL0 Copyright (c) Steve Scherf et al.
# Submitted via: CDex 1.40Beta2
#
DISCID=51083b06
DTITLE=Jimi Hendrix - Bellaphon Compilation
DYEAR=1991
DGENRE=Blues
TTITLE0=Hey Le Roy
TTITLE1=Free Spirit
TTITLE2=House of the Rising Sun
TTITLE3=Something you got
TTITLE4=Let the God sing
TTITLE5=She´s a Fox
EXTD=YEAR: 1991 ID3G:   0
EXTT0=
EXTT1=
EXTT2=
EXTT3=
EXTT4=
EXTT5=
PLAYORDER=
